<svg xmlns="http://www.w3.org/2000/svg" xmlns:xlink="http://www.w3.org/1999/xlink" version="1.1" x="0px" y="0px" viewBox="0 0 512 640" style="enable-background:new 0 0 512 512;" xml:space="preserve"><g><g><path d="M469.05,398.006h-440c-1.657,0-3-1.343-3-3v-254c0-1.657,1.343-3,3-3h440c1.657,0,3,1.343,3,3v254    C472.05,396.663,470.707,398.006,469.05,398.006z M32.05,392.006h434v-248h-434V392.006z"/></g><g><path d="M469.05,144.006h-440c-1.657,0-3-1.343-3-3v-44c0-1.657,1.343-3,3-3h42c1.657,0,3,1.343,3,3v11h64v-11    c0-1.657,1.343-3,3-3h216c1.657,0,3,1.343,3,3v11h64v-11c0-1.657,1.343-3,3-3h42c1.657,0,3,1.343,3,3v44    C472.05,142.663,470.707,144.006,469.05,144.006z M32.05,138.006h434v-38h-36v11c0,1.657-1.343,3-3,3h-70c-1.657,0-3-1.343-3-3    v-11h-210v11c0,1.657-1.343,3-3,3h-70c-1.657,0-3-1.343-3-3v-11h-36V138.006z"/></g><g><path d="M292.05,224.006h-36c-1.657,0-3-1.343-3-3v-36c0-1.657,1.343-3,3-3h36c1.657,0,3,1.343,3,3v36    C295.05,222.663,293.707,224.006,292.05,224.006z M259.051,218.006h29.999v-30h-29.999V218.006z"/></g><g><path d="M342.05,224.006h-36c-1.657,0-3-1.343-3-3v-36c0-1.657,1.343-3,3-3h36c1.657,0,3,1.343,3,3v36    C345.05,222.663,343.707,224.006,342.05,224.006z M309.05,218.006h30v-30h-30V218.006z"/></g><g><path d="M392.05,224.006h-36c-1.657,0-3-1.343-3-3v-36c0-1.657,1.343-3,3-3h36c1.657,0,3,1.343,3,3v36    C395.05,222.663,393.707,224.006,392.05,224.006z M359.05,218.006h30v-30h-30V218.006z"/></g><g><path d="M443.05,224.006h-37c-1.657,0-3-1.343-3-3v-36c0-1.657,1.343-3,3-3h37c1.657,0,3,1.343,3,3v36    C446.05,222.663,444.707,224.006,443.05,224.006z M409.05,218.006h31v-30h-31V218.006z"/></g><g><path d="M92.05,294.006h-37c-1.657,0-3-1.343-3-3v-36c0-1.657,1.343-3,3-3h37c1.657,0,3,1.343,3,3v36    C95.05,292.663,93.707,294.006,92.05,294.006z M58.05,288.006h31v-30h-31V288.006z"/></g><g><path d="M142.05,294.006h-37c-1.657,0-3-1.343-3-3v-36c0-1.657,1.343-3,3-3h37c1.657,0,3,1.343,3,3v36    C145.05,292.663,143.707,294.006,142.05,294.006z M108.05,288.006h31v-30h-31V288.006z"/></g><g><path d="M192.05,294.006h-36c-1.657,0-3-1.343-3-3v-36c0-1.657,1.343-3,3-3h36c1.657,0,3,1.343,3,3v36    C195.05,292.663,193.707,294.006,192.05,294.006z M159.05,288.006h30v-30h-30V288.006z"/></g><g><path d="M242.05,294.006h-36c-1.657,0-3-1.343-3-3v-36c0-1.657,1.343-3,3-3h36c1.657,0,3,1.343,3,3v36    C245.05,292.663,243.707,294.006,242.05,294.006z M209.05,288.006h30v-30h-30V288.006z"/></g><g><path d="M292.05,294.006h-36c-1.657,0-3-1.343-3-3v-36c0-1.657,1.343-3,3-3h36c1.657,0,3,1.343,3,3v36    C295.05,292.663,293.707,294.006,292.05,294.006z M259.051,288.006h29.999v-30h-29.999V288.006z"/></g><g><path d="M342.05,294.006h-36c-1.657,0-3-1.343-3-3v-36c0-1.657,1.343-3,3-3h36c1.657,0,3,1.343,3,3v36    C345.05,292.663,343.707,294.006,342.05,294.006z M309.05,288.006h30v-30h-30V288.006z"/></g><g><path d="M392.05,294.006h-36c-1.657,0-3-1.343-3-3v-36c0-1.657,1.343-3,3-3h36c1.657,0,3,1.343,3,3v36    C395.05,292.663,393.707,294.006,392.05,294.006z M359.05,288.006h30v-30h-30V288.006z"/></g><g><path d="M443.05,294.006h-37c-1.657,0-3-1.343-3-3v-36c0-1.657,1.343-3,3-3h37c1.657,0,3,1.343,3,3v36    C446.05,292.663,444.707,294.006,443.05,294.006z M409.05,288.006h31v-30h-31V288.006z"/></g><g><path d="M92.05,363.006h-37c-1.657,0-3-1.343-3-3v-36c0-1.657,1.343-3,3-3h37c1.657,0,3,1.343,3,3v36    C95.05,361.663,93.707,363.006,92.05,363.006z M58.05,357.006h31v-30h-31V357.006z"/></g><g><path d="M142.05,363.006h-37c-1.657,0-3-1.343-3-3v-36c0-1.657,1.343-3,3-3h37c1.657,0,3,1.343,3,3v36    C145.05,361.663,143.707,363.006,142.05,363.006z M108.05,357.006h31v-30h-31V357.006z"/></g><g><path d="M192.05,363.006h-36c-1.657,0-3-1.343-3-3v-36c0-1.657,1.343-3,3-3h36c1.657,0,3,1.343,3,3v36    C195.05,361.663,193.707,363.006,192.05,363.006z M159.05,357.006h30v-30h-30V357.006z"/></g><g><path d="M242.05,363.006h-36c-1.657,0-3-1.343-3-3v-36c0-1.657,1.343-3,3-3h36c1.657,0,3,1.343,3,3v36    C245.05,361.663,243.707,363.006,242.05,363.006z M209.05,357.006h30v-30h-30V357.006z"/></g><g><path d="M292.05,363.006h-36c-1.657,0-3-1.343-3-3v-36c0-1.657,1.343-3,3-3h36c1.657,0,3,1.343,3,3v36    C295.05,361.663,293.707,363.006,292.05,363.006z M259.051,357.006h29.999v-30h-29.999V357.006z"/></g><g><path d="M267.05,352.006c-0.768,0-1.535-0.293-2.121-0.879c-1.172-1.171-1.172-3.071,0-4.242l14-14    c1.172-1.172,3.07-1.172,4.242,0c1.172,1.171,1.172,3.071,0,4.242l-14,14C268.585,351.713,267.817,352.006,267.05,352.006z"/></g><g><path d="M281.05,352.006c-0.768,0-1.535-0.293-2.121-0.879l-14-14c-1.172-1.171-1.172-3.071,0-4.242    c1.172-1.172,3.07-1.172,4.242,0l14,14c1.172,1.171,1.172,3.071,0,4.242C282.585,351.713,281.817,352.006,281.05,352.006z"/></g><g><path d="M269.052,283.006c-0.937,0-1.858-0.438-2.443-1.256l-5-7c-0.963-1.349-0.65-3.223,0.697-4.186    c1.35-0.962,3.222-0.65,4.186,0.697l3.312,4.637l12.583-8.389c1.38-0.921,3.241-0.547,4.16,0.832s0.547,3.241-0.832,4.16l-15,10    C270.203,282.843,269.625,283.006,269.052,283.006z"/></g><g><path d="M141.05,114.006h-70c-1.657,0-3-1.343-3-3v-29c0-1.657,1.343-3,3-3h70c1.657,0,3,1.343,3,3v29    C144.05,112.663,142.707,114.006,141.05,114.006z M74.05,108.006h64v-23h-64V108.006z"/></g><g><path d="M427.05,114.006h-70c-1.657,0-3-1.343-3-3v-29c0-1.657,1.343-3,3-3h70c1.657,0,3,1.343,3,3v29    C430.05,112.663,428.707,114.006,427.05,114.006z M360.05,108.006h64v-23h-64V108.006z"/></g><g><path d="M350.05,420.006h-312c-1.657,0-3-1.343-3-3s1.343-3,3-3h312c1.657,0,3,1.343,3,3S351.707,420.006,350.05,420.006z"/></g><g><path d="M437.05,433.006h-216c-1.657,0-3-1.343-3-3s1.343-3,3-3h216c1.657,0,3,1.343,3,3S438.707,433.006,437.05,433.006z"/></g><g><path d="M486.05,433.006h-27c-1.657,0-3-1.343-3-3s1.343-3,3-3h27c1.657,0,3,1.343,3,3S487.707,433.006,486.05,433.006z"/></g><g><path d="M128.05,433.006h-102c-1.657,0-3-1.343-3-3s1.343-3,3-3h102c1.657,0,3,1.343,3,3S129.707,433.006,128.05,433.006z"/></g><g><path d="M332.05,167.006h-3c-1.657,0-3-1.343-3-3s1.343-3,3-3h3c1.657,0,3,1.343,3,3S333.707,167.006,332.05,167.006z     M311.05,167.006h-5c-1.657,0-3-1.343-3-3s1.343-3,3-3h5c1.657,0,3,1.343,3,3S312.707,167.006,311.05,167.006z M288.05,167.006h-5    c-1.657,0-3-1.343-3-3s1.343-3,3-3h5c1.657,0,3,1.343,3,3S289.707,167.006,288.05,167.006z M265.05,167.006h-5    c-1.657,0-3-1.343-3-3s1.343-3,3-3h5c1.657,0,3,1.343,3,3S266.707,167.006,265.05,167.006z M242.05,167.006h-5    c-1.657,0-3-1.343-3-3s1.343-3,3-3h5c1.657,0,3,1.343,3,3S243.707,167.006,242.05,167.006z M219.05,167.006h-5    c-1.657,0-3-1.343-3-3s1.343-3,3-3h5c1.657,0,3,1.343,3,3S220.707,167.006,219.05,167.006z M196.05,167.006h-5    c-1.657,0-3-1.343-3-3s1.343-3,3-3h5c1.657,0,3,1.343,3,3S197.707,167.006,196.05,167.006z M173.05,167.006h-5    c-1.657,0-3-1.343-3-3s1.343-3,3-3h5c1.657,0,3,1.343,3,3S174.707,167.006,173.05,167.006z M150.05,167.006h-5    c-1.657,0-3-1.343-3-3s1.343-3,3-3h5c1.657,0,3,1.343,3,3S151.707,167.006,150.05,167.006z M127.05,167.006h-5    c-1.657,0-3-1.343-3-3s1.343-3,3-3h5c1.657,0,3,1.343,3,3S128.707,167.006,127.05,167.006z M104.05,167.006h-5    c-1.657,0-3-1.343-3-3s1.343-3,3-3h5c1.657,0,3,1.343,3,3S105.707,167.006,104.05,167.006z M81.05,167.006h-5    c-1.657,0-3-1.343-3-3s1.343-3,3-3h5c1.657,0,3,1.343,3,3S82.707,167.006,81.05,167.006z M58.05,167.006h-5c-1.657,0-3-1.343-3-3    s1.343-3,3-3h5c1.657,0,3,1.343,3,3S59.707,167.006,58.05,167.006z"/></g></g><text x="0" y="527" fill="#000000" font-size="5px" font-weight="bold" font-family="'Helvetica Neue', Helvetica, Arial-Unicode, Arial, Sans-serif">Created by Flatart</text><text x="0" y="532" fill="#000000" font-size="5px" font-weight="bold" font-family="'Helvetica Neue', Helvetica, Arial-Unicode, Arial, Sans-serif">from the Noun Project</text></svg>