<svg xmlns="http://www.w3.org/2000/svg" xmlns:xlink="http://www.w3.org/1999/xlink" version="1.1" x="0px" y="0px" viewBox="0 0 100 125" style="enable-background:new 0 0 100 100;" xml:space="preserve"><style type="text/css">
	.st0{fill:#1E120D;}
</style><g><path d="M80.7,41.7C80.7,24.8,67,11,50.1,11c0,0,0,0,0,0c0,0,0,0-0.1,0c0,0,0,0-0.1,0c0,0,0,0,0,0C33,11,19.3,24.8,19.3,41.7   c0,8.2,3.2,15.6,8.5,21.2c0,0,0,0,0,0c0.1,0.1,0.2,0.2,0.2,0.2c5.4,5.5,12.8,9,21.1,9.3l19.7,16c0.5,0.4,1,0.6,1.6,0.6   c0.4,0,0.7-0.1,1.1-0.2c0.9-0.4,1.4-1.3,1.4-2.3V62.3C77.9,56.7,80.7,49.4,80.7,41.7z M24.4,44.2h8.5c0.2,3.7,1,7.3,2.2,10.7   c-1.7,0.9-3.4,1.9-5,3C26.9,54.1,24.9,49.4,24.4,44.2z M30,25.5c1.6,1.2,3.3,2.2,5,3c-1.2,3.4-2,6.9-2.2,10.7h-8.5   C24.9,34.1,26.9,29.3,30,25.5z M75.6,39.2h-8.5c-0.2-3.7-1-7.3-2.2-10.7c1.7-0.9,3.4-1.9,5-3C73.1,29.3,75.1,34.1,75.6,39.2z    M47.5,64.9c-2.3-2.1-4.2-4.5-5.7-7.3c1.9-0.6,3.8-1,5.7-1.1V64.9z M47.5,51.5c-2.6,0.2-5.3,0.7-7.8,1.6c-1-2.8-1.6-5.7-1.8-8.8   h9.6V51.5z M37.9,39.2c0.2-3.1,0.8-6,1.8-8.8c2.6,0.8,5.2,1.3,7.8,1.5v7.3H37.9z M52.5,18.5c2.3,2.1,4.2,4.5,5.7,7.3   c-1.9,0.6-3.8,0.9-5.7,1.1V18.5z M47.5,26.9c-1.9-0.2-3.8-0.6-5.7-1.1c1.5-2.7,3.4-5.2,5.7-7.3V26.9z M52.5,32   c2.6-0.2,5.3-0.7,7.8-1.5c1,2.8,1.6,5.7,1.8,8.8h-9.6V32z M62.9,23.9c-1.3-2.4-2.8-4.6-4.5-6.6c3,1,5.7,2.6,8,4.5   C65.3,22.7,64.1,23.4,62.9,23.9z M37.1,24c-1.2-0.6-2.4-1.3-3.5-2c2.4-2,5.1-3.5,8-4.5C39.9,19.4,38.4,21.6,37.1,24z M37.1,59.5   c1.3,2.4,2.8,4.6,4.5,6.6c-3-1-5.7-2.6-8-4.5C34.7,60.8,35.9,60.1,37.1,59.5z M52.5,64.9v-8.4c1.9,0.2,3.8,0.6,5.7,1.1   C56.7,60.4,54.8,62.9,52.5,64.9z M52.5,51.5v-7.2h9.6c-0.2,3.1-0.8,6-1.8,8.8C57.8,52.2,55.1,51.7,52.5,51.5z M67.1,44.2h8.5   c-0.5,5-2.4,9.8-5.6,13.7c-1.6-1.2-3.3-2.2-5-3C66.2,51.6,66.9,48,67.1,44.2z M54.1,70.1c3.6-2.9,6.6-6.5,8.8-10.6   c1.7,0.9,3.3,1.9,4.9,3.1v18.7L54.1,70.1z"/></g><text x="0" y="115" fill="#000000" font-size="5px" font-weight="bold" font-family="'Helvetica Neue', Helvetica, Arial-Unicode, Arial, Sans-serif">Created by matias porta lezcano</text><text x="0" y="120" fill="#000000" font-size="5px" font-weight="bold" font-family="'Helvetica Neue', Helvetica, Arial-Unicode, Arial, Sans-serif">from the Noun Project</text></svg>