<svg xmlns:dc="http://purl.org/dc/elements/1.1/" xmlns:cc="http://creativecommons.org/ns#" xmlns:rdf="http://www.w3.org/1999/02/22-rdf-syntax-ns#" xmlns:svg="http://www.w3.org/2000/svg" xmlns="http://www.w3.org/2000/svg" xmlns:sodipodi="http://sodipodi.sourceforge.net/DTD/sodipodi-0.dtd" xmlns:inkscape="http://www.inkscape.org/namespaces/inkscape" viewBox="0 0 511.99998 639.999975" version="1.1" x="0px" y="0px"><g transform="translate(-91.214475,-152.15558)"><g transform="matrix(0.87160306,0,0,0.87221709,-27.259235,103.62152)"><path d="M 611.2898,527.03797 502.81237,512.14793 441.29225,602.72576 421.93216,494.95631 316.77677,464.4373 l 96.51224,-51.71513 -3.4695,-109.43962 79.00793,75.80773 103.01112,-37.11839 -47.68264,98.5669 z" style="opacity:1;fill:#000000;fill-opacity:1;fill-rule:nonzero;stroke:#000000;stroke-width:25;stroke-linecap:round;stroke-linejoin:round;stroke-miterlimit:4;stroke-dasharray:none;stroke-dashoffset:0;stroke-opacity:1"/><path d="m 661.26367,83.123047 c -5.01288,-0.14545 -10.10189,0.04832 -15.21875,0.457031 -40.93486,3.269711 -89.77977,23.359062 -142.46802,50.939162 -52.68825,27.5801 -105.83683,64.64672 -152.63846,104.59435 -54.84029,46.80904 -107.28882,100.26755 -145.15133,153.07 -37.86251,52.80246 -64.30971,101.83927 -69.20508,144.8086 -2.44768,21.48466 1.57947,44.71378 18.49219,60.1289 16.91272,15.41513 69.39912,18.74383 95.82643,15.31641 52.85462,-6.85484 108.46125,-14.83571 219.65164,-83.93613 l -45.08911,-75.47898 c -108.54669,67.45747 -144.33595,76.74302 -181.37618,81.54686 -18.52011,2.40191 -25.4322,-1.21581 -27.04687,-2.6875 -1.61467,-1.4717 -14.51866,-12.14081 -13.10074,-24.58669 2.83584,-24.89176 7.20196,-36.7758 42.48053,-85.97475 35.27858,-49.19895 99.98704,-123.22385 127.4002,-146.53999 43.55081,-37.04194 54.5243,-50.03671 146.67928,-106.87512 41.90193,-25.84384 97.73274,-49.25521 125.28335,-51.45584 13.7753,-1.10031 38.6222,5.50462 44.56037,17.57837 5.93817,12.07376 2.67843,35.10569 -6.1107,61.74784 -16.44556,49.85079 -60.84467,112.60292 -60.84467,112.60292 0,0 84.79612,-79.68828 98.77827,-153.27693 4.15357,-21.86041 -2.71657,-45.28174 -19.17188,-58.302732 -12.34148,-9.765741 -26.69182,-13.239431 -41.73047,-13.675781 z" style="color:#000000;font-style:normal;font-variant:normal;font-weight:normal;font-stretch:normal;font-size:medium;line-height:normal;font-family:sans-serif;text-indent:0;text-align:start;text-decoration:none;text-decoration-line:none;text-decoration-style:solid;text-decoration-color:#000000;letter-spacing:normal;word-spacing:normal;text-transform:none;direction:ltr;block-progression:tb;writing-mode:lr-tb;baseline-shift:baseline;text-anchor:start;white-space:normal;clip-rule:nonzero;display:inline;overflow:visible;visibility:visible;opacity:1;isolation:auto;mix-blend-mode:normal;color-interpolation:sRGB;color-interpolation-filters:linearRGB;solid-color:#000000;solid-opacity:1;fill:#000000;fill-opacity:1;fill-rule:evenodd;stroke:none;stroke-width:50;stroke-linecap:butt;stroke-linejoin:miter;stroke-miterlimit:4;stroke-dasharray:none;stroke-dashoffset:0;stroke-opacity:1;color-rendering:auto;image-rendering:auto;shape-rendering:auto;text-rendering:auto;enable-background:accumulate"/></g></g><text x="0" y="526.99998" fill="#000000" font-size="5px" font-weight="bold" font-family="'Helvetica Neue', Helvetica, Arial-Unicode, Arial, Sans-serif">Created by Ali Coşkun</text><text x="0" y="531.99998" fill="#000000" font-size="5px" font-weight="bold" font-family="'Helvetica Neue', Helvetica, Arial-Unicode, Arial, Sans-serif">from the Noun Project</text></svg>