<svg width="432" height="307" viewBox="0 0 432 307" fill="none" xmlns="http://www.w3.org/2000/svg">
<rect width="432" height="307" fill="#E5E5E5"/>
<g clip-path="url(#clip0)">
<path d="M432 0H0V307H432V0Z" fill="#E5E5E5"/>
<path d="M217.386 307C334.527 307 429.489 298.784 429.489 288.65C429.489 278.515 334.527 270.299 217.386 270.299C100.246 270.299 5.28482 278.515 5.28482 288.65C5.28482 298.784 100.246 307 217.386 307Z" fill="#F2F2F2"/>
<path d="M209.257 87.76C174.7 87.76 149.888 116.734 149.888 184.341C149.888 260.963 174.7 281.245 209.257 281.245C243.814 281.245 270.104 259.031 270.104 184.341C270.104 104.501 243.814 87.76 209.257 87.76ZM209.484 255.812C185.549 255.812 173.044 237.46 173.044 184.391C173.044 137.565 186.061 112.871 209.996 112.871C233.931 112.871 246.947 129.091 246.947 184.391C246.947 236.123 233.419 255.812 209.484 255.812Z" fill="#2F2E41"/>
<path d="M129.196 227.803H114.908V172.818C114.908 169.897 114.02 167.096 112.44 165.031C110.859 162.966 108.716 161.806 106.482 161.806H103.134C102.027 161.806 100.931 162.091 99.909 162.644C98.8868 163.197 97.9578 164.009 97.1751 165.031C96.3928 166.054 95.7721 167.267 95.3487 168.604C94.9252 169.94 94.7072 171.371 94.7072 172.818V227.803H54.406C53.5769 227.803 52.762 227.523 52.0402 226.99C51.3181 226.457 50.7141 225.689 50.2862 224.761C49.8583 223.834 49.6209 222.776 49.5975 221.694C49.5741 220.61 49.7654 219.538 50.1529 218.58L92.8072 113.074C93.3391 111.759 93.6615 110.317 93.7548 108.834C93.8484 107.351 93.7109 105.859 93.351 104.448C92.9907 103.036 92.4157 101.735 91.6602 100.622C90.9046 99.5095 89.9845 98.6081 88.9552 97.9726L86.4372 96.419C84.4822 95.2125 82.2468 95.0339 80.1938 95.921C78.1407 96.8086 76.4276 98.6931 75.4083 101.185L23.3855 228.367C22.4996 230.533 22.0362 232.951 22.0362 235.407C22.0362 237.368 22.3317 239.31 22.9059 241.121C23.4801 242.932 24.3217 244.579 25.3827 245.965C26.4436 247.352 27.7032 248.452 29.0894 249.202C30.4756 249.952 31.9614 250.339 33.4618 250.339H94.7072V285.108C94.7072 286.842 94.9687 288.558 95.4761 290.159C95.9839 291.761 96.7275 293.216 97.6654 294.442C98.6034 295.667 99.717 296.639 100.942 297.303C102.168 297.966 103.481 298.308 104.807 298.308C106.134 298.308 107.447 297.966 108.673 297.303C109.898 296.639 111.011 295.667 111.949 294.442C112.887 293.216 113.631 291.761 114.139 290.159C114.646 288.558 114.908 286.842 114.908 285.108V250.339H129.196C131.482 250.339 133.675 249.152 135.292 247.039C136.909 244.925 137.817 242.059 137.817 239.071C137.817 236.083 136.909 233.216 135.292 231.103C133.675 228.99 131.482 227.803 129.196 227.803Z" fill="#2F4F4F"/>
<path d="M393.766 227.803H379.48V172.818C379.48 169.897 378.592 167.096 377.014 165.031C375.431 162.966 373.288 161.806 371.054 161.806H367.706C366.599 161.806 365.504 162.091 364.481 162.644C363.459 163.197 362.53 164.009 361.748 165.031C360.965 166.054 360.344 167.267 359.921 168.604C359.498 169.94 359.28 171.371 359.28 172.818V227.803H318.978C318.149 227.803 317.334 227.523 316.613 226.99C315.891 226.457 315.286 225.689 314.859 224.761C314.431 223.834 314.193 222.776 314.17 221.694C314.147 220.61 314.338 219.538 314.725 218.58L357.38 113.074C357.911 111.759 358.234 110.317 358.327 108.834C358.421 107.351 358.283 105.859 357.923 104.448C357.563 103.036 356.988 101.735 356.233 100.622C355.477 99.5095 354.557 98.6081 353.528 97.9726L351.009 96.419C349.055 95.2125 346.819 95.0339 344.766 95.921C342.713 96.8086 341 98.6931 339.981 101.185L287.958 228.367C287.072 230.533 286.609 232.951 286.609 235.407C286.609 239.367 287.812 243.165 289.955 245.965C292.098 248.765 295.004 250.339 298.034 250.339H359.28V285.108C359.28 288.609 360.344 291.966 362.238 294.442C364.132 296.917 366.701 298.308 369.38 298.308C372.059 298.308 374.629 296.917 376.523 294.442C378.414 291.966 379.48 288.609 379.48 285.108V250.339H393.766C396.054 250.339 398.246 249.152 399.866 247.039C401.481 244.925 402.392 242.059 402.392 239.071C402.392 236.083 401.481 233.216 399.866 231.103C398.246 228.99 396.054 227.803 393.766 227.803Z" fill="#2F4F4F"/>
<path d="M133.137 221.364H118.849V166.379C118.849 164.933 118.631 163.501 118.208 162.165C117.784 160.829 117.163 159.615 116.381 158.592C115.598 157.57 114.67 156.759 113.648 156.205C112.625 155.652 111.53 155.367 110.423 155.367H107.075C104.84 155.367 102.697 156.527 101.117 158.592C99.5365 160.657 98.6487 163.458 98.6487 166.379V221.364H58.3475C57.5184 221.364 56.7035 221.084 55.9817 220.552C55.2596 220.018 54.6556 219.251 54.2277 218.323C53.7998 217.395 53.5624 216.338 53.539 215.255C53.516 214.172 53.7069 213.099 54.0944 212.141L96.7487 106.636C97.2806 105.32 97.603 103.878 97.6963 102.395C97.7899 100.912 97.6524 99.4203 97.2925 98.0089C96.9322 96.5976 96.3572 95.296 95.6017 94.1836C94.8461 93.0707 93.926 92.1692 92.8967 91.5342L90.3786 89.9801C88.4237 88.7736 86.1883 88.5955 84.1353 89.4826C82.0826 90.3697 80.3691 92.2542 79.3498 94.746L27.327 221.929C26.4411 224.095 25.9777 226.513 25.9777 228.968C25.9777 232.928 27.1814 236.726 29.3242 239.526C31.4669 242.327 34.373 243.9 37.4035 243.9H98.6487V278.67C98.6487 280.403 98.9102 282.119 99.4176 283.72C99.9254 285.322 100.669 286.777 101.607 288.003C102.545 289.228 103.658 290.201 104.884 290.864C106.109 291.527 107.422 291.869 108.749 291.869C111.428 291.869 113.997 290.478 115.891 288.003C117.785 285.528 118.849 282.17 118.849 278.67V243.9H133.137C134.269 243.9 135.39 243.609 136.436 243.042C137.483 242.476 138.433 241.646 139.234 240.6C140.034 239.554 140.669 238.311 141.102 236.944C141.536 235.577 141.759 234.112 141.759 232.632C141.759 231.152 141.536 229.687 141.102 228.32C140.669 226.953 140.034 225.711 139.234 224.665C138.433 223.618 137.483 222.788 136.436 222.222C135.39 221.656 134.269 221.364 133.137 221.364Z" stroke="#3F3D56" stroke-miterlimit="10"/>
<path d="M401.158 221.364H386.868V166.379C386.868 163.458 385.981 160.657 384.402 158.592C382.823 156.527 380.68 155.367 378.444 155.367H375.097C373.99 155.367 372.894 155.652 371.873 156.205C370.849 156.759 369.921 157.57 369.138 158.592C368.356 159.615 367.735 160.829 367.311 162.165C366.888 163.501 366.67 164.933 366.67 166.379V221.364H326.369C325.54 221.364 324.725 221.084 324.003 220.552C323.281 220.018 322.677 219.251 322.249 218.323C321.821 217.395 321.584 216.338 321.56 215.255C321.537 214.172 321.728 213.099 322.116 212.141L364.77 106.636C365.302 105.32 365.624 103.878 365.718 102.395C365.811 100.912 365.674 99.4203 365.313 98.0089C364.953 96.5976 364.378 95.296 363.623 94.1836C362.867 93.0707 361.947 92.1692 360.918 91.5342L358.4 89.9801C356.445 88.7736 354.21 88.5955 352.157 89.4826C350.104 90.3697 348.39 92.2542 347.371 94.746L295.348 221.929C294.462 224.095 293.999 226.513 293.999 228.968C293.999 232.928 295.203 236.726 297.345 239.526C299.488 242.327 302.394 243.9 305.424 243.9H366.67V278.67C366.67 282.17 367.734 285.528 369.628 288.003C371.524 290.478 374.09 291.869 376.769 291.869C379.451 291.869 382.017 290.478 383.912 288.003C385.806 285.528 386.868 282.17 386.868 278.67V243.9H401.158C402.291 243.9 403.413 243.609 404.457 243.042C405.504 242.476 406.455 241.646 407.254 240.6C408.056 239.554 408.691 238.311 409.122 236.944C409.557 235.577 409.78 234.112 409.78 232.632C409.78 229.644 408.873 226.777 407.254 224.665C405.638 222.552 403.446 221.364 401.158 221.364Z" stroke="#3F3D56" stroke-miterlimit="10"/>
<path d="M217.14 81.9647C182.583 81.9647 157.771 110.939 157.771 178.547C157.771 255.168 182.583 275.45 217.14 275.45C251.697 275.45 277.987 253.236 277.987 178.547C277.987 98.7055 251.697 81.9647 217.14 81.9647ZM217.367 250.017C193.432 250.017 180.927 231.666 180.927 178.596C180.927 131.77 193.944 107.076 217.879 107.076C241.814 107.076 254.83 123.297 254.83 178.596C254.83 230.328 241.302 250.017 217.367 250.017Z" stroke="#3F3D56" stroke-miterlimit="10"/>
<path d="M404.847 220.464C406.065 221.042 407.369 221.243 408.658 221.051C409.947 220.859 411.18 220.278 412.268 219.355C413.353 218.432 414.263 217.191 414.921 215.732C415.578 214.272 415.964 212.633 416.053 210.943C416.146 209.253 415.935 207.559 415.437 205.995C414.939 204.431 414.174 203.038 413.193 201.928C412.216 200.817 411.054 200.019 409.798 199.596C408.543 199.172 407.232 199.136 405.961 199.489L406.173 205.118L404.134 200.294C402.135 201.522 400.59 203.738 399.84 206.454C399.572 207.405 399.409 208.401 399.357 209.412C399.227 211.784 399.695 214.146 400.686 216.14C401.675 218.135 403.138 219.653 404.847 220.464Z" fill="#57B894"/>
<path d="M414.932 285.751C414.211 280.964 417.328 276.72 420.407 273.961C423.486 271.202 427.086 268.492 428.137 263.81C429.645 257.082 425.147 250.921 421.648 245.607C419.051 241.663 416.819 237.332 415.002 232.703C414.274 230.846 413.606 228.906 413.412 226.835C413.138 223.853 413.869 220.885 414.609 218.04C417.071 208.563 419.701 199.166 422.502 189.848" stroke="#3F3D56" stroke-miterlimit="10"/>
<path d="M405.192 219.015C406.411 219.593 407.714 219.794 409.003 219.602C410.289 219.41 411.526 218.829 412.614 217.906C413.699 216.983 414.609 215.742 415.262 214.283C415.92 212.823 416.31 211.184 416.399 209.494C416.488 207.804 416.276 206.11 415.782 204.546C415.285 202.981 414.516 201.589 413.539 200.478C412.558 199.368 411.396 198.569 410.144 198.146C408.888 197.723 407.573 197.687 406.307 198.04L406.515 203.669L404.479 198.845C402.477 200.073 400.932 202.289 400.181 205.005C399.918 205.956 399.754 206.952 399.702 207.963C399.572 210.335 400.04 212.697 401.028 214.691C402.02 216.685 403.484 218.203 405.192 219.015Z" stroke="#3F3D56" stroke-miterlimit="10"/>
<path d="M413.907 187.905C414.386 186.181 415.188 184.642 416.243 183.43C417.294 182.218 418.565 181.372 419.932 180.969L420.619 186.321L421.897 180.7C423.672 180.735 425.392 181.505 426.807 182.899C428.226 184.294 429.266 186.241 429.782 188.46C430.295 190.678 430.258 193.053 429.675 195.241C429.088 197.43 427.985 199.318 426.525 200.635C425.065 201.952 423.323 202.628 421.551 202.566C419.775 202.503 418.063 201.707 416.659 200.29C415.255 198.873 414.233 196.91 413.739 194.684C413.245 192.457 413.305 190.084 413.907 187.905Z" fill="#57B894"/>
<path d="M414.367 185.972C414.846 184.248 415.649 182.71 416.7 181.498C417.755 180.286 419.021 179.439 420.392 179.037L421.079 184.389L422.357 178.768C424.133 178.802 425.849 179.573 427.268 180.967C428.683 182.362 429.727 184.309 430.239 186.528C430.756 188.746 430.719 191.121 430.132 193.309C429.548 195.497 428.445 197.386 426.985 198.703C425.526 200.019 423.783 200.695 422.008 200.633C420.236 200.571 418.524 199.774 417.12 198.358C415.715 196.941 414.694 194.978 414.196 192.752C413.702 190.525 413.762 188.151 414.367 185.972Z" stroke="#3F3D56" stroke-miterlimit="10"/>
<path d="M420.177 245.716C422.108 246.631 424.233 246.586 426.138 245.589C428.048 244.591 429.608 242.71 430.522 240.307C431.439 237.902 431.643 235.141 431.101 232.551C430.559 229.961 429.307 227.722 427.583 226.261L426.603 230.58L425.908 225.165C425.901 225.161 425.893 225.158 425.886 225.155C424.853 224.664 423.754 224.444 422.658 224.508C421.558 224.571 420.481 224.917 419.486 225.525C418.49 226.133 417.595 226.992 416.852 228.052C416.109 229.112 415.537 230.353 415.162 231.704C414.787 233.054 414.62 234.488 414.668 235.923C414.716 237.358 414.984 238.767 415.448 240.068C415.912 241.369 416.57 242.538 417.383 243.507C418.193 244.476 419.144 245.226 420.177 245.716Z" fill="#57B894"/>
<path d="M420.578 243.758C422.509 244.674 424.63 244.629 426.54 243.631C428.445 242.634 430.005 240.753 430.923 238.349C431.837 235.945 432.041 233.184 431.502 230.594C430.96 228.004 429.708 225.765 427.981 224.303L427 228.622L426.306 223.208C426.298 223.204 426.291 223.2 426.283 223.198C425.251 222.707 424.155 222.487 423.055 222.551C421.956 222.614 420.879 222.96 419.883 223.568C418.888 224.176 417.993 225.035 417.25 226.095C416.51 227.155 415.935 228.396 415.559 229.746C415.184 231.097 415.017 232.531 415.065 233.966C415.114 235.401 415.381 236.81 415.846 238.111C416.314 239.412 416.971 240.581 417.781 241.549C418.594 242.519 419.541 243.269 420.578 243.758Z" stroke="#3F3D56" stroke-miterlimit="10"/>
<path d="M411.466 263.877C411.797 266.347 412.77 268.593 414.219 270.237C415.667 271.882 417.506 272.825 419.423 272.91C421.339 272.994 423.223 272.214 424.753 270.7C426.283 269.187 427.368 267.032 427.825 264.597C428.285 262.162 428.089 259.595 427.271 257.327C426.45 255.058 425.061 253.226 423.334 252.138C421.607 251.049 419.642 250.771 417.777 251.349C415.909 251.927 414.248 253.327 413.078 255.313L416.808 262.647L411.711 258.755C411.317 260.412 411.232 262.168 411.466 263.877Z" fill="#57B894"/>
<path d="M411.812 262.428C412.142 264.898 413.115 267.143 414.564 268.788C416.013 270.433 417.848 271.376 419.768 271.461C421.685 271.545 423.568 270.765 425.095 269.251C426.625 267.738 427.713 265.583 428.17 263.148C428.627 260.713 428.434 258.146 427.613 255.878C426.796 253.609 425.407 251.777 423.679 250.689C421.948 249.6 419.987 249.322 418.119 249.9C416.254 250.478 414.594 251.878 413.424 253.864L417.153 261.198L412.057 257.306C411.663 258.962 411.578 260.719 411.812 262.428Z" stroke="#3F3D56" stroke-miterlimit="10"/>
<path d="M3.6218 247.105C4.42209 247.485 5.27899 247.617 6.12498 247.491C6.971 247.364 7.78296 246.983 8.49689 246.376C9.21086 245.77 9.80723 244.955 10.2391 243.996C10.6709 243.037 10.9264 241.96 10.9854 240.85C11.0444 239.739 10.9052 238.626 10.579 237.599C10.2527 236.571 9.74824 235.656 9.10529 234.926C8.46234 234.197 7.69849 233.672 6.87397 233.394C6.04946 233.116 5.1868 233.092 4.354 233.324L4.49162 237.023L3.15272 233.853C1.83867 234.66 0.823507 236.116 0.330323 237.9C0.155173 238.526 0.0486946 239.18 0.0140649 239.844C-0.0704472 241.402 0.236028 242.954 0.887044 244.265C1.53806 245.575 2.49814 246.572 3.6218 247.105Z" fill="#57B894"/>
<path d="M10.2467 290C9.77407 286.854 11.8221 284.066 13.8451 282.253C15.868 280.441 18.2317 278.66 18.922 275.584C19.914 271.164 16.9591 267.116 14.6593 263.625C12.953 261.034 11.4877 258.187 10.2941 255.146C9.77515 253.952 9.42171 252.646 9.24999 251.291C9.06865 249.332 9.55035 247.382 10.0357 245.513C11.6523 239.286 13.3808 233.112 15.2211 226.99" stroke="#3F3D56" stroke-miterlimit="10"/>
<path d="M3.84803 246.153C4.64829 246.533 5.50523 246.665 6.35121 246.539C7.19723 246.412 8.00919 246.031 8.72313 245.424C9.43706 244.818 10.0335 244.003 10.4653 243.044C10.8971 242.085 11.1526 241.007 11.2116 239.897C11.2706 238.787 11.1315 237.674 10.8052 236.646C10.4789 235.618 9.97444 234.704 9.33149 233.974C8.68854 233.245 7.92473 232.72 7.10021 232.442C6.2757 232.164 5.41303 232.14 4.58024 232.372L4.71786 236.071L3.37895 232.901C2.0649 233.708 1.04973 235.163 0.556552 236.948C0.381401 237.573 0.274925 238.228 0.240293 238.892C0.155776 240.45 0.462248 242.002 1.11327 243.312C1.76429 244.623 2.72437 245.62 3.84803 246.153Z" stroke="#3F3D56" stroke-miterlimit="10"/>
<path d="M9.57469 225.713C9.88875 224.58 10.4158 223.57 11.1075 222.773C11.799 221.977 12.6329 221.421 13.5321 221.156L13.9848 224.672L14.8241 220.98C15.9894 221.002 17.1191 221.508 18.05 222.425C18.981 223.341 19.665 224.62 20.0033 226.078C20.3417 227.535 20.3169 229.096 19.9324 230.533C19.548 231.971 18.8239 233.212 17.8646 234.077C16.9053 234.942 15.7605 235.386 14.5954 235.345C13.4304 235.305 12.3054 234.781 11.3829 233.85C10.4604 232.919 9.78813 231.63 9.4631 230.167C9.13808 228.704 9.17716 227.145 9.57469 225.713Z" fill="#57B894"/>
<path d="M9.8766 224.443C10.1906 223.311 10.7178 222.3 11.4093 221.504C12.1009 220.707 12.9347 220.151 13.834 219.887L14.2867 223.403L15.126 219.71C16.2913 219.733 17.421 220.239 18.3519 221.155C19.2829 222.071 19.9669 223.351 20.3052 224.808C20.6436 226.266 20.6187 227.826 20.2343 229.264C19.8499 230.702 19.1258 231.943 18.1665 232.808C17.2072 233.672 16.0624 234.117 14.8974 234.076C13.7323 234.035 12.6073 233.511 11.6848 232.581C10.7623 231.65 10.09 230.36 9.76498 228.897C9.44 227.435 9.47908 225.875 9.8766 224.443Z" stroke="#3F3D56" stroke-miterlimit="10"/>
<path d="M13.6941 263.696C14.9633 264.297 16.3574 264.268 17.6109 263.612C18.8644 262.957 19.8895 261.722 20.4909 260.142C21.0922 258.562 21.2278 256.748 20.8717 255.047C20.5156 253.345 19.6928 251.874 18.56 250.914L17.9151 253.752L17.4578 250.194C17.4533 250.191 17.4486 250.189 17.4438 250.187C16.765 249.865 16.0441 249.72 15.3225 249.761C14.6008 249.803 13.8925 250.03 13.2381 250.43C12.5836 250.829 11.9958 251.393 11.5082 252.09C11.0207 252.787 10.643 253.602 10.3966 254.489C10.1503 255.377 10.0402 256.319 10.0726 257.262C10.105 258.205 10.2794 259.13 10.5856 259.986C10.8918 260.841 11.324 261.608 11.8573 262.245C12.3907 262.881 13.0149 263.374 13.6941 263.696Z" fill="#57B894"/>
<path d="M13.9557 262.41C15.2249 263.012 16.6191 262.982 17.8726 262.326C19.126 261.671 20.1511 260.436 20.7525 258.856C21.3538 257.277 21.4894 255.463 21.1333 253.761C20.7772 252.059 19.9544 250.588 18.8217 249.628L18.1767 252.465L17.7194 248.908C17.7149 248.905 17.7103 248.903 17.7054 248.901C17.0268 248.579 16.3062 248.436 15.5849 248.478C14.8636 248.52 14.1558 248.747 13.5018 249.147C12.1809 249.954 11.1595 251.414 10.6623 253.205C10.165 254.997 10.2327 256.973 10.8503 258.699C11.468 260.425 12.585 261.76 13.9557 262.41Z" stroke="#3F3D56" stroke-miterlimit="10"/>
<path d="M7.97019 275.628C8.18838 277.251 8.82691 278.726 9.77868 279.807C10.7305 280.887 11.9375 281.508 13.1975 281.563C14.4575 281.618 15.6938 281.106 16.6991 280.111C17.7043 279.117 18.4173 277.701 18.7186 276.101C19.0198 274.501 18.891 272.815 18.3537 271.325C17.8163 269.834 16.9032 268.63 15.7674 267.916C14.6316 267.2 13.3422 267.017 12.1155 267.397C10.8887 267.777 9.79918 268.697 9.02968 270.002L11.4793 274.82L8.13218 272.263C7.87264 273.351 7.81711 274.506 7.97019 275.628Z" fill="#57B894"/>
<path d="M8.19658 274.676C8.41481 276.299 9.05334 277.774 10.0051 278.855C10.9569 279.935 12.164 280.555 13.424 280.611C14.684 280.666 15.9202 280.154 16.9255 279.159C17.9307 278.165 18.6437 276.749 18.945 275.149C19.2462 273.549 19.1174 271.863 18.5801 270.372C18.0428 268.882 17.1296 267.678 15.9938 266.963C14.858 266.248 13.5686 266.065 12.3419 266.445C11.1151 266.825 10.0256 267.745 9.25608 269.049L11.7057 273.868L8.35861 271.311C8.09908 272.399 8.04351 273.554 8.19658 274.676Z" stroke="#3F3D56" stroke-miterlimit="10"/>
<path d="M193.383 179.248C197.158 179.248 200.218 174.072 200.218 167.688C200.218 161.303 197.158 156.127 193.383 156.127C189.608 156.127 186.547 161.303 186.547 167.688C186.547 174.072 189.608 179.248 193.383 179.248Z" fill="#2F2E41"/>
<path d="M230.576 179.511C234.351 179.511 237.411 174.335 237.411 167.95C237.411 161.566 234.351 156.39 230.576 156.39C226.8 156.39 223.74 161.566 223.74 167.95C223.74 174.335 226.8 179.511 230.576 179.511Z" fill="#2F2E41"/>
<path d="M225.348 202.107C225.348 207.33 219.768 211.565 212.884 211.565C206 211.565 200.419 207.33 200.419 202.107C200.419 197.582 204.605 193.799 210.198 192.874C211.088 192.721 211.986 192.645 212.884 192.648C214.389 192.642 215.89 192.853 217.359 193.279C222.031 194.639 225.348 198.081 225.348 202.107Z" fill="#2F2E41"/>
<path d="M194.991 176.621C198.766 176.621 201.826 171.445 201.826 165.06C201.826 158.676 198.766 153.5 194.991 153.5C191.216 153.5 188.156 158.676 188.156 165.06C188.156 171.445 191.216 176.621 194.991 176.621Z" stroke="#3F3D56" stroke-miterlimit="10"/>
<path d="M232.184 176.884C235.959 176.884 239.02 171.708 239.02 165.323C239.02 158.939 235.959 153.763 232.184 153.763C228.409 153.763 225.348 158.939 225.348 165.323C225.348 171.708 228.409 176.884 232.184 176.884Z" stroke="#3F3D56" stroke-miterlimit="10"/>
<path d="M214.492 208.938C221.376 208.938 226.957 204.703 226.957 199.479C226.957 194.256 221.376 190.021 214.492 190.021C207.608 190.021 202.027 194.256 202.027 199.479C202.027 204.703 207.608 208.938 214.492 208.938Z" stroke="#3F3D56" stroke-miterlimit="10"/>
<path d="M217.508 194.067C217.511 194.728 217.321 195.365 216.977 195.849C216.815 196.081 216.617 196.267 216.397 196.394C216.177 196.521 215.939 196.588 215.698 196.589H211.677C211.182 196.566 210.713 196.289 210.375 195.816C210.036 195.343 209.854 194.714 209.868 194.067C209.866 193.555 209.981 193.053 210.198 192.627C211.088 192.463 211.985 192.382 212.884 192.385C214.391 192.379 215.893 192.605 217.359 193.058C217.458 193.378 217.509 193.721 217.508 194.067Z" fill="white"/>
<path d="M194.991 164.535C196.101 164.535 197.001 163.359 197.001 161.907C197.001 160.456 196.101 159.28 194.991 159.28C193.881 159.28 192.98 160.456 192.98 161.907C192.98 163.359 193.881 164.535 194.991 164.535Z" fill="white"/>
<path d="M232.385 164.535C233.495 164.535 234.396 163.359 234.396 161.907C234.396 160.456 233.495 159.28 232.385 159.28C231.275 159.28 230.374 160.456 230.374 161.907C230.374 163.359 231.275 164.535 232.385 164.535Z" fill="white"/>
<path opacity="0.3" d="M234.395 189.232C235.506 189.232 236.406 188.056 236.406 186.605C236.406 185.154 235.506 183.978 234.395 183.978C233.285 183.978 232.385 185.154 232.385 186.605C232.385 188.056 233.285 189.232 234.395 189.232Z" fill="#2F4F4F"/>
<path opacity="0.3" d="M185.341 189.232C186.451 189.232 187.351 188.056 187.351 186.605C187.351 185.154 186.451 183.978 185.341 183.978C184.23 183.978 183.33 185.154 183.33 186.605C183.33 188.056 184.23 189.232 185.341 189.232Z" fill="#2F4F4F"/>
</g>
<defs>
<clipPath id="clip0">
<rect width="432" height="307" fill="white"/>
</clipPath>
</defs>
</svg>
