<svg width="1074" height="805" viewBox="0 0 1074 805" fill="none" xmlns="http://www.w3.org/2000/svg">
<rect width="1074" height="805" fill="#E5E5E5"/>
<g clip-path="url(#clip0)">
<path d="M538.303 812.949C750.027 812.949 921.664 791.357 921.664 764.723C921.664 738.089 750.027 716.497 538.303 716.497C326.58 716.497 154.943 738.089 154.943 764.723C154.943 791.357 326.58 812.949 538.303 812.949Z" fill="#F2F2F2"/>
<path d="M508.338 304C454.008 304 415 340.389 415 425.298C415 521.527 454.008 547 508.338 547C562.668 547 604 519.101 604 425.298C604 325.025 562.668 304 508.338 304ZM508.695 515.058C471.065 515.058 451.406 492.011 451.406 425.36C451.406 366.55 471.87 335.537 509.5 335.537C547.13 335.537 567.594 355.909 567.594 425.36C567.594 490.331 546.325 515.058 508.695 515.058Z" fill="#2F2E41"/>
<path d="M589 720.927H565.8V655.359C565.8 651.876 564.359 648.537 561.793 646.074C559.227 643.611 555.747 642.228 552.118 642.228H546.682C544.885 642.228 543.106 642.568 541.446 643.228C539.786 643.887 538.278 644.855 537.007 646.074C535.737 647.293 534.729 648.741 534.042 650.334C533.354 651.927 533 653.635 533 655.359V720.927H467.561C466.214 720.927 464.891 720.593 463.719 719.957C462.547 719.322 461.566 718.406 460.871 717.3C460.176 716.193 459.791 714.933 459.753 713.641C459.715 712.35 460.026 711.071 460.655 709.929L529.915 584.118C530.778 582.55 531.302 580.83 531.453 579.062C531.605 577.294 531.382 575.514 530.797 573.831C530.213 572.148 529.279 570.597 528.052 569.27C526.826 567.943 525.331 566.868 523.66 566.11L519.571 564.257C516.397 562.819 512.767 562.606 509.434 563.664C506.1 564.722 503.318 566.969 501.663 569.941L417.191 721.6C415.753 724.182 415 727.066 415 729.994V729.994C415 734.716 416.955 739.245 420.434 742.584C423.913 745.924 428.632 747.799 433.552 747.799H533V789.26C533 793.435 534.728 797.438 537.803 800.39C540.879 803.342 545.05 805 549.4 805V805C553.75 805 557.921 803.342 560.997 800.39C564.072 797.438 565.8 793.435 565.8 789.26V747.799H589C592.713 747.799 596.274 746.384 598.899 743.864C601.525 741.344 603 737.927 603 734.363V734.363C603 730.8 601.525 727.382 598.899 724.862C596.274 722.342 592.713 720.927 589 720.927Z" fill="#2F4F4F"/>
<path d="M601 713.579H577.8V647.741C577.8 644.244 576.359 640.89 573.793 638.417C571.227 635.945 567.747 634.555 564.118 634.555H558.682C556.885 634.555 555.106 634.896 553.446 635.559C551.786 636.222 550.278 637.193 549.007 638.417C547.737 639.642 546.729 641.095 546.042 642.695C545.354 644.295 545 646.009 545 647.741V713.579H479.561C478.214 713.579 476.891 713.244 475.719 712.606C474.547 711.968 473.566 711.049 472.871 709.937C472.176 708.826 471.791 707.561 471.753 706.264C471.715 704.967 472.026 703.683 472.655 702.536L541.915 576.206C542.778 574.631 543.302 572.903 543.453 571.128C543.605 569.353 543.382 567.566 542.797 565.876C542.213 564.186 541.279 562.628 540.052 561.295C538.826 559.963 537.331 558.884 535.66 558.123L531.571 556.263C528.397 554.818 524.767 554.604 521.434 555.667C518.1 556.729 515.318 558.985 513.663 561.969L429.191 714.255C427.753 716.848 427 719.743 427 722.684C427 727.426 428.955 731.973 432.434 735.326C435.913 738.679 440.632 740.563 445.552 740.563H545V782.195C545 786.387 546.728 790.407 549.803 793.371C552.879 796.335 557.05 798 561.4 798V798C565.75 798 569.921 796.335 572.997 793.371C576.072 790.407 577.8 786.387 577.8 782.195V740.563H601C602.839 740.563 604.659 740.214 606.358 739.536C608.056 738.858 609.599 737.864 610.899 736.611C612.2 735.359 613.231 733.871 613.934 732.234C614.638 730.597 615 728.843 615 727.071V727.071C615 723.493 613.525 720.061 610.9 717.531C608.274 715.001 604.713 713.579 601 713.579V713.579Z" stroke="#3F3D56" stroke-miterlimit="10"/>
<path d="M519.338 297C465.008 297 426 333.389 426 418.298C426 514.527 465.008 540 519.338 540C573.668 540 615 512.102 615 418.298C615 318.025 573.668 297 519.338 297ZM519.695 508.058C482.065 508.058 462.406 485.011 462.406 418.36C462.406 359.55 482.87 328.537 520.5 328.537C558.13 328.537 578.594 348.909 578.594 418.36C578.594 483.331 557.325 508.058 519.695 508.058V508.058Z" stroke="#3F3D56" stroke-miterlimit="10"/>
<path d="M781.423 615.014C784.452 616.532 787.694 617.059 790.895 616.554C794.096 616.05 797.169 614.527 799.87 612.107C802.572 609.686 804.829 606.434 806.463 602.606C808.097 598.778 809.063 594.48 809.287 590.049C809.51 585.619 808.983 581.177 807.749 577.075C806.514 572.973 804.605 569.322 802.172 566.41C799.74 563.498 796.849 561.404 793.729 560.295C790.609 559.185 787.345 559.09 784.194 560.016L784.715 574.776L779.648 562.126C774.676 565.347 770.835 571.156 768.969 578.279C768.306 580.774 767.903 583.385 767.772 586.036C767.452 592.255 768.612 598.449 771.075 603.678C773.539 608.907 777.172 612.887 781.423 615.014V615.014Z" fill="#57B894"/>
<path d="M806.492 786.207C804.703 773.654 812.453 762.525 820.107 755.292C827.762 748.058 836.706 740.951 839.318 728.676C843.072 711.033 831.891 694.876 823.189 680.943C816.732 670.603 811.188 659.245 806.671 647.106C804.861 642.239 803.197 637.151 802.72 631.721C802.034 623.9 803.857 616.119 805.693 608.659C811.81 583.81 818.351 559.169 825.314 534.736" stroke="#3F3D56" stroke-miterlimit="10"/>
<path d="M782.28 611.214C785.308 612.731 788.551 613.259 791.752 612.754C794.953 612.25 798.026 610.727 800.727 608.306C803.429 605.886 805.685 602.634 807.319 598.806C808.953 594.978 809.92 590.68 810.143 586.249C810.367 581.818 809.84 577.377 808.606 573.275C807.371 569.172 805.462 565.521 803.029 562.609C800.596 559.698 797.706 557.604 794.586 556.495C791.466 555.385 788.202 555.29 785.051 556.216L785.572 570.976L780.505 558.326C775.533 561.547 771.692 567.356 769.826 574.479C769.163 576.973 768.76 579.585 768.629 582.236C768.309 588.455 769.469 594.649 771.932 599.878C774.395 605.107 778.028 609.087 782.28 611.214V611.214Z" stroke="#3F3D56" stroke-miterlimit="10"/>
<path d="M803.949 529.639C805.137 525.119 807.132 521.084 809.749 517.906C812.366 514.728 815.521 512.509 818.923 511.454L820.636 525.486L823.812 510.749C828.222 510.839 832.496 512.858 836.019 516.515C839.542 520.172 842.13 525.278 843.41 531.095C844.69 536.912 844.597 543.139 843.142 548.877C841.687 554.616 838.947 559.569 835.317 563.021C831.687 566.473 827.355 568.245 822.947 568.083C818.539 567.92 814.282 565.83 810.791 562.116C807.3 558.401 804.756 553.253 803.527 547.416C802.297 541.578 802.445 535.353 803.949 529.639H803.949Z" fill="#57B894"/>
<path d="M805.091 524.572C806.28 520.052 808.274 516.018 810.891 512.84C813.508 509.662 816.663 507.443 820.066 506.387L821.779 520.419L824.955 505.682C829.364 505.772 833.639 507.791 837.161 511.448C840.684 515.105 843.272 520.211 844.552 526.028C845.833 531.845 845.739 538.072 844.284 543.81C842.83 549.549 840.09 554.502 836.46 557.954C832.83 561.406 828.498 563.178 824.089 563.016C819.681 562.853 815.424 560.764 811.933 557.049C808.443 553.334 805.899 548.186 804.669 542.349C803.439 536.511 803.587 530.286 805.091 524.572H805.091Z" stroke="#3F3D56" stroke-miterlimit="10"/>
<path d="M819.537 681.228C824.339 683.629 829.614 683.51 834.357 680.895C839.1 678.279 842.979 673.349 845.255 667.045C847.53 660.74 848.043 653.502 846.696 646.71C845.348 639.918 842.235 634.046 837.949 630.215L835.509 641.54L833.778 627.343C833.761 627.332 833.743 627.322 833.725 627.315C831.156 626.028 828.429 625.452 825.699 625.618C822.968 625.785 820.289 626.692 817.813 628.286C815.337 629.881 813.113 632.133 811.268 634.912C809.424 637.692 807.995 640.946 807.063 644.487C806.131 648.028 805.714 651.788 805.837 655.551C805.959 659.315 806.618 663.008 807.777 666.42C808.935 669.832 810.57 672.896 812.588 675.437C814.605 677.977 816.967 679.945 819.536 681.228H819.537Z" fill="#57B894"/>
<path d="M820.526 676.096C825.329 678.497 830.604 678.378 835.347 675.762C840.09 673.147 843.969 668.217 846.245 661.913C848.52 655.608 849.033 648.37 847.686 641.578C846.338 634.785 843.225 628.914 838.939 625.083L836.498 636.408L834.768 622.21C834.751 622.199 834.733 622.19 834.715 622.183C832.146 620.896 829.419 620.32 826.689 620.486C823.958 620.653 821.279 621.559 818.802 623.154C816.326 624.749 814.103 627 812.258 629.78C810.414 632.56 808.985 635.813 808.053 639.355C807.121 642.896 806.704 646.656 806.826 650.419C806.949 654.182 807.608 657.876 808.767 661.288C809.925 664.7 811.56 667.764 813.578 670.304C815.595 672.845 817.957 674.813 820.526 676.096H820.526Z" stroke="#3F3D56" stroke-miterlimit="10"/>
<path d="M797.877 728.851C798.703 735.327 801.119 741.215 804.721 745.527C808.322 749.84 812.89 752.314 817.657 752.535C822.425 752.757 827.103 750.712 830.907 746.743C834.711 742.774 837.409 737.124 838.549 730.739C839.689 724.354 839.201 717.623 837.168 711.674C835.135 705.726 831.679 700.922 827.382 698.068C823.084 695.214 818.205 694.484 813.563 696C808.921 697.517 804.798 701.187 801.887 706.395L811.156 725.625L798.49 715.419C797.508 719.764 797.298 724.37 797.877 728.851V728.851Z" fill="#57B894"/>
<path d="M798.734 725.051C799.56 731.527 801.976 737.415 805.577 741.727C809.179 746.04 813.746 748.514 818.514 748.735C823.282 748.957 827.96 746.911 831.764 742.943C835.567 738.974 838.265 733.324 839.405 726.939C840.545 720.554 840.058 713.823 838.025 707.874C835.991 701.926 832.536 697.122 828.238 694.268C823.941 691.414 819.062 690.684 814.42 692.2C809.778 693.716 805.655 697.386 802.743 702.595L812.013 721.825L799.347 711.619C798.365 715.964 798.155 720.57 798.734 725.051V725.051Z" stroke="#3F3D56" stroke-miterlimit="10"/>
<path d="M217.927 662.944C219.917 663.941 222.047 664.287 224.15 663.956C226.254 663.624 228.272 662.624 230.047 661.033C231.822 659.443 233.305 657.306 234.378 654.791C235.452 652.277 236.087 649.452 236.234 646.541C236.381 643.63 236.035 640.712 235.224 638.017C234.412 635.322 233.158 632.923 231.56 631.01C229.961 629.096 228.062 627.721 226.012 626.992C223.963 626.263 221.818 626.2 219.748 626.809L220.09 636.506L216.761 628.195C213.494 630.311 210.97 634.128 209.744 638.808C209.309 640.447 209.044 642.163 208.958 643.905C208.748 647.991 209.51 652.06 211.128 655.496C212.747 658.931 215.134 661.546 217.927 662.944V662.944Z" fill="#57B894"/>
<path d="M234.397 775.42C233.222 767.173 238.314 759.861 243.343 755.109C248.373 750.356 254.249 745.687 255.965 737.621C258.431 726.03 251.085 715.415 245.368 706.26C241.126 699.467 237.483 692.004 234.515 684.029C233.225 680.896 232.346 677.474 231.92 673.92C231.469 668.782 232.666 663.669 233.873 658.768C237.892 642.442 242.189 626.252 246.764 610.2" stroke="#3F3D56" stroke-miterlimit="10"/>
<path d="M218.49 660.447C220.48 661.444 222.61 661.79 224.713 661.459C226.817 661.127 228.835 660.127 230.61 658.537C232.385 656.946 233.868 654.81 234.941 652.295C236.015 649.78 236.65 646.955 236.797 644.044C236.943 641.134 236.598 638.215 235.786 635.52C234.975 632.825 233.721 630.426 232.123 628.513C230.524 626.6 228.625 625.224 226.575 624.495C224.526 623.766 222.381 623.704 220.31 624.312L220.653 634.01L217.324 625.699C214.057 627.815 211.533 631.632 210.307 636.311C209.872 637.95 209.607 639.666 209.521 641.408C209.311 645.494 210.073 649.563 211.691 652.999C213.31 656.434 215.697 659.049 218.49 660.447V660.447Z" stroke="#3F3D56" stroke-miterlimit="10"/>
<path d="M232.727 606.85C233.507 603.881 234.818 601.23 236.537 599.142C238.257 597.054 240.33 595.596 242.565 594.903L243.691 604.122L245.777 594.439C248.674 594.499 251.483 595.825 253.797 598.228C256.112 600.631 257.812 603.985 258.653 607.807C259.495 611.629 259.433 615.72 258.477 619.491C257.521 623.261 255.721 626.515 253.336 628.783C250.951 631.051 248.105 632.216 245.209 632.109C242.312 632.002 239.516 630.629 237.222 628.188C234.929 625.748 233.257 622.366 232.449 618.53C231.641 614.695 231.738 610.605 232.727 606.85V606.85Z" fill="#57B894"/>
<path d="M233.477 603.521C234.258 600.552 235.569 597.901 237.288 595.813C239.007 593.725 241.08 592.267 243.316 591.574L244.441 600.793L246.528 591.11C249.425 591.17 252.233 592.496 254.548 594.899C256.862 597.302 258.563 600.656 259.404 604.478C260.245 608.3 260.183 612.391 259.228 616.162C258.272 619.932 256.472 623.186 254.087 625.454C251.702 627.722 248.856 628.887 245.959 628.78C243.063 628.673 240.266 627.3 237.973 624.859C235.679 622.419 234.008 619.036 233.2 615.201C232.392 611.366 232.489 607.276 233.477 603.521V603.521Z" stroke="#3F3D56" stroke-miterlimit="10"/>
<path d="M242.968 706.447C246.123 708.025 249.59 707.947 252.706 706.228C255.822 704.51 258.371 701.271 259.866 697.129C261.361 692.987 261.698 688.231 260.812 683.768C259.927 679.306 257.881 675.448 255.065 672.931L253.462 680.372L252.325 671.044C252.314 671.036 252.302 671.03 252.29 671.026C250.603 670.18 248.811 669.8 247.016 669.91C245.222 670.019 243.461 670.614 241.834 671.662C240.207 672.71 238.746 674.189 237.534 676.015C236.322 677.842 235.383 679.98 234.77 682.307C234.158 684.634 233.884 687.104 233.965 689.577C234.045 692.05 234.479 694.477 235.24 696.718C236.001 698.96 237.076 700.974 238.402 702.643C239.728 704.312 241.279 705.605 242.968 706.447V706.447Z" fill="#57B894"/>
<path d="M243.618 703.075C246.774 704.653 250.24 704.575 253.356 702.856C256.472 701.138 259.021 697.899 260.516 693.757C262.011 689.615 262.348 684.859 261.463 680.396C260.577 675.934 258.532 672.076 255.716 669.559L254.112 677L252.975 667.672C252.964 667.665 252.953 667.658 252.941 667.654C251.253 666.81 249.462 666.433 247.669 666.543C245.876 666.654 244.116 667.25 242.49 668.298C239.206 670.415 236.667 674.243 235.431 678.94C234.194 683.637 234.363 688.819 235.898 693.345C237.434 697.871 240.211 701.371 243.618 703.075V703.075Z" stroke="#3F3D56" stroke-miterlimit="10"/>
<path d="M228.738 737.737C229.28 741.992 230.868 745.86 233.234 748.693C235.6 751.527 238.601 753.152 241.734 753.298C244.866 753.443 247.94 752.099 250.439 749.492C252.938 746.885 254.711 743.172 255.46 738.977C256.208 734.782 255.888 730.359 254.552 726.451C253.216 722.543 250.946 719.387 248.123 717.512C245.299 715.637 242.093 715.157 239.043 716.153C235.994 717.149 233.285 719.561 231.372 722.983L237.462 735.617L229.141 728.911C228.495 731.766 228.357 734.793 228.738 737.737V737.737Z" fill="#57B894"/>
<path d="M229.301 735.24C229.843 739.495 231.431 743.363 233.797 746.197C236.163 749.03 239.164 750.655 242.297 750.801C245.429 750.946 248.503 749.603 251.002 746.995C253.501 744.388 255.273 740.675 256.022 736.48C256.771 732.285 256.451 727.862 255.115 723.954C253.779 720.046 251.509 716.89 248.685 715.015C245.862 713.14 242.656 712.66 239.606 713.656C236.556 714.652 233.848 717.064 231.935 720.486L238.025 733.121L229.703 726.414C229.058 729.269 228.92 732.296 229.301 735.24V735.24Z" stroke="#3F3D56" stroke-miterlimit="10"/>
<path d="M482.5 426C488.299 426 493 419.508 493 411.5C493 403.492 488.299 397 482.5 397C476.701 397 472 403.492 472 411.5C472 419.508 476.701 426 482.5 426Z" fill="#2F2E41"/>
<path d="M541 426C547.075 426 552 419.508 552 411.5C552 403.492 547.075 397 541 397C534.925 397 530 403.492 530 411.5C530 419.508 534.925 426 541 426Z" fill="#2F2E41"/>
<path d="M533 454C533 460.074 524.045 465 513 465C501.955 465 493 460.074 493 454C493 448.738 499.716 444.338 508.69 443.263C510.119 443.084 511.559 442.997 513 443C515.415 442.993 517.823 443.239 520.181 443.733C527.677 445.316 533 449.319 533 454Z" fill="#2F2E41"/>
<path d="M485 422C491.075 422 496 415.508 496 407.5C496 399.492 491.075 393 485 393C478.925 393 474 399.492 474 407.5C474 415.508 478.925 422 485 422Z" stroke="#3F3D56" stroke-miterlimit="10"/>
<path d="M543.5 423C549.299 423 554 416.284 554 408C554 399.716 549.299 393 543.5 393C537.701 393 533 399.716 533 408C533 416.284 537.701 423 543.5 423Z" stroke="#3F3D56" stroke-miterlimit="10"/>
<path d="M516 462C527.046 462 536 456.851 536 450.5C536 444.149 527.046 439 516 439C504.954 439 496 444.149 496 450.5C496 456.851 504.954 462 516 462Z" stroke="#3F3D56" stroke-miterlimit="10"/>
<path d="M520 444C520.005 444.786 519.731 445.544 519.236 446.12C519.002 446.396 518.717 446.616 518.401 446.768C518.084 446.919 517.741 446.998 517.395 447H511.606C510.893 446.973 510.218 446.643 509.73 446.08C509.242 445.518 508.98 444.77 509.001 444C508.998 443.391 509.163 442.794 509.476 442.287C510.757 442.092 512.049 441.996 513.343 442C515.512 441.992 517.675 442.261 519.786 442.8C519.929 443.181 520.001 443.589 520 444V444Z" fill="white"/>
<path d="M485.5 407C487.433 407 489 405.657 489 404C489 402.343 487.433 401 485.5 401C483.567 401 482 402.343 482 404C482 405.657 483.567 407 485.5 407Z" fill="white"/>
<path d="M543.5 407C545.433 407 547 405.657 547 404C547 402.343 545.433 401 543.5 401C541.567 401 540 402.343 540 404C540 405.657 541.567 407 543.5 407Z" fill="white"/>
<path opacity="0.3" d="M547 438C548.657 438 550 436.433 550 434.5C550 432.567 548.657 431 547 431C545.343 431 544 432.567 544 434.5C544 436.433 545.343 438 547 438Z" fill="#2F4F4F"/>
<path opacity="0.3" d="M470.5 438C471.881 438 473 436.433 473 434.5C473 432.567 471.881 431 470.5 431C469.119 431 468 432.567 468 434.5C468 436.433 469.119 438 470.5 438Z" fill="#2F4F4F"/>
<path d="M593.702 204.927H570.009V139.359C570.009 135.876 568.536 132.537 565.916 130.074C563.295 127.611 559.741 126.228 556.036 126.228H550.484C548.649 126.228 546.832 126.568 545.136 127.228C543.441 127.887 541.901 128.855 540.603 130.074C539.306 131.293 538.276 132.741 537.574 134.334C536.872 135.927 536.511 137.635 536.511 139.359V204.927H469.679C468.304 204.927 466.953 204.593 465.756 203.957C464.558 203.322 463.556 202.406 462.847 201.3C462.137 200.193 461.744 198.933 461.705 197.641C461.667 196.35 461.984 195.071 462.626 193.929L533.36 68.1183C534.242 66.5498 534.776 64.8296 534.931 63.0615C535.086 61.2935 534.858 59.5143 534.261 57.8314C533.664 56.1484 532.71 54.5966 531.458 53.2696C530.205 51.9425 528.679 50.8678 526.972 50.1103L522.796 48.2573C519.554 46.8185 515.847 46.606 512.443 47.6639C509.039 48.7218 506.197 50.969 504.507 53.9407L418.238 205.6C416.769 208.182 416 211.066 416 213.994V213.994C416 216.332 416.49 218.648 417.442 220.808C418.394 222.968 419.79 224.931 421.55 226.584C423.309 228.238 425.398 229.549 427.696 230.444C429.995 231.339 432.459 231.799 434.947 231.799H536.511V273.26C536.511 275.327 536.944 277.374 537.786 279.284C538.627 281.193 539.861 282.928 541.416 284.39C542.972 285.852 544.818 287.011 546.85 287.802C548.882 288.593 551.06 289 553.26 289H553.26C555.459 289 557.637 288.593 559.669 287.802C561.701 287.011 563.548 285.852 565.103 284.39C566.658 282.928 567.892 281.193 568.734 279.284C569.575 277.374 570.009 275.327 570.009 273.26V231.799H593.702C597.494 231.799 601.131 230.384 603.812 227.864C606.494 225.344 608 221.927 608 218.363V218.363C608 214.8 606.494 211.382 603.812 208.862C601.131 206.342 597.494 204.927 593.702 204.927V204.927Z" fill="#2F4F4F"/>
<path d="M600.702 198.232H577.009V132.122C577.009 130.384 576.647 128.662 575.945 127.056C575.243 125.449 574.213 123.99 572.916 122.761C571.618 121.531 570.078 120.556 568.383 119.891C566.687 119.225 564.871 118.883 563.036 118.883H557.484C553.778 118.883 550.224 120.278 547.603 122.761C544.983 125.243 543.511 128.611 543.511 132.122V198.232H476.679C475.304 198.232 473.953 197.895 472.756 197.254C471.558 196.614 470.556 195.691 469.847 194.575C469.137 193.459 468.744 192.189 468.705 190.886C468.667 189.584 468.984 188.295 469.626 187.143L540.36 60.2929C541.242 58.7114 541.776 56.9769 541.931 55.1943C542.086 53.4117 541.858 51.6178 541.261 49.9209C540.664 48.224 539.71 46.6594 538.458 45.3214C537.205 43.9834 535.679 42.8998 533.972 42.136L529.796 40.2677C526.554 38.817 522.847 38.6028 519.443 39.6694C516.039 40.736 513.197 43.0018 511.507 45.998L425.238 198.911C423.769 201.514 423 204.421 423 207.374V207.374C423 212.135 424.996 216.702 428.55 220.069C432.103 223.435 436.922 225.327 441.947 225.327H543.511V267.13C543.511 269.214 543.944 271.278 544.786 273.203C545.627 275.129 546.861 276.878 548.416 278.352C549.972 279.826 551.818 280.994 553.85 281.792C555.882 282.59 558.06 283 560.26 283H560.26C564.702 283 568.962 281.328 572.103 278.352C575.244 275.376 577.009 271.339 577.009 267.13V225.327H600.702C602.58 225.327 604.439 224.976 606.174 224.295C607.908 223.615 609.485 222.617 610.812 221.359C612.14 220.101 613.193 218.607 613.912 216.964C614.63 215.32 615 213.558 615 211.779V211.779C615 210 614.63 208.239 613.912 206.595C613.193 204.951 612.14 203.458 610.812 202.2C609.485 200.942 607.908 199.944 606.174 199.263C604.439 198.582 602.58 198.232 600.702 198.232V198.232Z" stroke="#3F3D56" stroke-miterlimit="10"/>
</g>
<defs>
<clipPath id="clip0">
<rect width="1074" height="805" fill="white"/>
</clipPath>
</defs>
</svg>
